<svg data-v-423bf9ae="" xmlns="http://www.w3.org/2000/svg" viewBox="0 0 597 90" class="iconLeft"><!----><!----><!----><g data-v-423bf9ae="" id="e8545724-80d1-4e54-abbb-3f6d7aa104fd" fill="#2B1200" transform="matrix(5.357142948374458,0,0,5.357142948374458,62.338453176830285,9.374998490725247)"><path d="M0.70 10.23L0.70 10.23L0.70 3.07L0.70 3.07Q0.70 2.08 1.22 1.57L1.22 1.57L1.22 1.57Q1.74 1.05 2.73 1.05L2.73 1.05L4.30 1.05L4.30 1.05Q5.28 1.05 5.80 1.57L5.80 1.57L5.80 1.57Q6.32 2.08 6.32 3.07L6.32 3.07L6.32 4.58L6.32 4.58Q6.32 4.80 6.09 4.80L6.09 4.80L4.69 4.80L4.69 4.80Q4.46 4.80 4.46 4.58L4.46 4.58L4.46 3.46L4.46 3.46Q4.46 2.90 3.90 2.90L3.90 2.90L3.18 2.90L3.18 2.90Q2.62 2.90 2.62 3.46L2.62 3.46L2.62 9.84L2.62 9.84Q2.62 10.40 3.18 10.40L3.18 10.40L3.90 10.40L3.90 10.40Q4.46 10.40 4.46 9.84L4.46 9.84L4.46 8.72L4.46 8.72Q4.46 8.50 4.69 8.50L4.69 8.50L6.09 8.50L6.09 8.50Q6.19 8.50 6.25 8.56L6.25 8.56L6.25 8.56Q6.32 8.62 6.32 8.72L6.32 8.72L6.32 10.23L6.32 10.23Q6.32 11.22 5.80 11.73L5.80 11.73L5.80 11.73Q5.28 12.25 4.30 12.25L4.30 12.25L2.73 12.25L2.73 12.25Q1.74 12.25 1.22 11.74L1.22 11.74L1.22 11.74Q0.70 11.22 0.70 10.23ZM7.44 12.01L7.44 12.01L9.77 2.65L9.77 2.65Q9.81 2.45 10.01 2.45L10.01 2.45L11.96 2.45L11.96 2.45Q12.15 2.45 12.20 2.65L12.20 2.65L14.52 12.01L14.52 12.01Q14.53 12.06 14.53 12.09L14.53 12.09L14.53 12.09Q14.53 12.25 14.32 12.25L14.32 12.25L12.96 12.25L12.96 12.25Q12.78 12.25 12.74 12.05L12.74 12.05L12.29 10.29L9.66 10.29L9.23 12.05L9.23 12.05Q9.19 12.25 9.00 12.25L9.00 12.25L7.63 12.25L7.63 12.25Q7.43 12.25 7.43 12.10L7.43 12.10L7.43 12.10Q7.43 12.06 7.44 12.01ZM10.98 4.86L10.10 8.67L11.86 8.67L10.98 4.86ZM15.37 11.97L15.37 11.97L15.37 2.73L15.37 2.73Q15.37 2.45 15.65 2.45L15.65 2.45L17.50 2.45L17.50 2.45Q17.75 2.45 17.81 2.69L17.81 2.69L19.36 8.93L20.91 2.69L20.91 2.69Q20.97 2.45 21.22 2.45L21.22 2.45L23.07 2.45L23.07 2.45Q23.35 2.45 23.35 2.73L23.35 2.73L23.35 11.97L23.35 11.97Q23.35 12.25 23.07 12.25L23.07 12.25L21.77 12.25L21.77 12.25Q21.49 12.25 21.49 11.97L21.49 11.97L21.49 6.47L21.39 6.47L20.08 12.01L20.08 12.01Q20.02 12.25 19.76 12.25L19.76 12.25L18.94 12.25L18.94 12.25Q18.70 12.25 18.63 12.01L18.63 12.01L17.32 6.47L17.22 6.47L17.22 11.97L17.22 11.97Q17.22 12.25 16.94 12.25L16.94 12.25L15.65 12.25L15.65 12.25Q15.37 12.25 15.37 11.97ZM24.75 2.67L24.75 12.02L24.75 12.02Q24.75 12.25 24.97 12.25L24.97 12.25L26.43 12.25L26.43 12.25Q26.53 12.25 26.59 12.19L26.59 12.19L26.59 12.19Q26.65 12.13 26.65 12.02L26.65 12.02L26.65 2.67L26.65 2.67Q26.65 2.57 26.59 2.51L26.59 2.51L26.59 2.51Q26.53 2.45 26.43 2.45L26.43 2.45L24.97 2.45L24.97 2.45Q24.75 2.45 24.75 2.67L24.75 2.67ZM28.05 2.67L28.05 12.02L28.05 12.02Q28.05 12.25 28.27 12.25L28.27 12.25L32.72 12.25L32.72 12.25Q32.95 12.25 32.95 12.02L32.95 12.02L32.95 10.62L32.95 10.62Q32.95 10.40 32.72 10.40L32.72 10.40L29.96 10.40L29.96 2.67L29.96 2.67Q29.96 2.45 29.73 2.45L29.73 2.45L28.27 2.45L28.27 2.45Q28.17 2.45 28.11 2.51L28.11 2.51L28.11 2.51Q28.05 2.57 28.05 2.67L28.05 2.67ZM33.80 12.01L33.80 12.01L36.12 2.65L36.12 2.65Q36.16 2.45 36.36 2.45L36.36 2.45L38.31 2.45L38.31 2.45Q38.51 2.45 38.55 2.65L38.55 2.65L40.87 12.01L40.87 12.01Q40.89 12.06 40.89 12.09L40.89 12.09L40.89 12.09Q40.89 12.25 40.67 12.25L40.67 12.25L39.31 12.25L39.31 12.25Q39.14 12.25 39.09 12.05L39.09 12.05L38.64 10.29L36.01 10.29L35.58 12.05L35.58 12.05Q35.54 12.25 35.36 12.25L35.36 12.25L33.98 12.25L33.98 12.25Q33.78 12.25 33.78 12.10L33.78 12.10L33.78 12.10Q33.78 12.06 33.80 12.01ZM37.33 4.86L36.45 8.67L38.21 8.67L37.33 4.86ZM45.50 10.23L45.50 10.23L45.50 3.07L45.50 3.07Q45.50 2.08 46.01 1.57L46.01 1.57L46.01 1.57Q46.53 1.05 47.52 1.05L47.52 1.05L49.37 1.05L49.37 1.05Q50.35 1.05 50.87 1.57L50.87 1.57L50.87 1.57Q51.39 2.08 51.39 3.07L51.39 3.07L51.39 4.53L51.39 4.53Q51.39 4.74 51.16 4.74L51.16 4.74L49.76 4.74L49.76 4.74Q49.53 4.74 49.53 4.53L49.53 4.53L49.53 3.46L49.53 3.46Q49.53 2.90 48.97 2.90L48.97 2.90L47.97 2.90L47.97 2.90Q47.41 2.90 47.41 3.46L47.41 3.46L47.41 9.84L47.41 9.84Q47.41 10.40 47.97 10.40L47.97 10.40L48.97 10.40L48.97 10.40Q49.53 10.40 49.53 9.84L49.53 9.84L49.53 7.96L48.81 7.96L48.81 7.96Q48.58 7.96 48.58 7.75L48.58 7.75L48.58 6.34L48.58 6.34Q48.58 6.12 48.81 6.12L48.81 6.12L51.16 6.12L51.16 6.12Q51.39 6.12 51.39 6.34L51.39 6.34L51.39 10.23L51.39 10.23Q51.39 11.22 50.87 11.73L50.87 11.73L50.87 11.73Q50.35 12.25 49.37 12.25L49.37 12.25L47.52 12.25L47.52 12.25Q46.53 12.25 46.01 11.74L46.01 11.74L46.01 11.74Q45.50 11.22 45.50 10.23ZM52.51 12.01L52.51 12.01L54.83 2.65L54.83 2.65Q54.87 2.45 55.07 2.45L55.07 2.45L57.02 2.45L57.02 2.45Q57.22 2.45 57.26 2.65L57.26 2.65L59.58 12.01L59.58 12.01Q59.60 12.06 59.60 12.09L59.60 12.09L59.60 12.09Q59.60 12.25 59.38 12.25L59.38 12.25L58.02 12.25L58.02 12.25Q57.85 12.25 57.80 12.05L57.80 12.05L57.35 10.29L54.72 10.29L54.29 12.05L54.29 12.05Q54.25 12.25 54.07 12.25L54.07 12.25L52.69 12.25L52.69 12.25Q52.49 12.25 52.49 12.10L52.49 12.10L52.49 12.10Q52.49 12.06 52.51 12.01ZM56.04 4.86L55.16 8.67L56.92 8.67L56.04 4.86ZM60.71 2.67L60.71 12.02L60.71 12.02Q60.71 12.25 60.94 12.25L60.94 12.25L65.39 12.25L65.39 12.25Q65.61 12.25 65.61 12.02L65.61 12.02L65.61 10.62L65.61 10.62Q65.61 10.40 65.39 10.40L65.39 10.40L62.62 10.40L62.62 2.67L62.62 2.67Q62.62 2.45 62.39 2.45L62.39 2.45L60.94 2.45L60.94 2.45Q60.83 2.45 60.77 2.51L60.77 2.51L60.77 2.51Q60.71 2.57 60.71 2.67L60.71 2.67ZM67.01 2.67L67.01 12.02L67.01 12.02Q67.01 12.25 67.23 12.25L67.23 12.25L71.68 12.25L71.68 12.25Q71.91 12.25 71.91 12.02L71.91 12.02L71.91 10.62L71.91 10.62Q71.91 10.40 71.68 10.40L71.68 10.40L68.91 10.40L68.91 2.67L68.91 2.67Q68.91 2.45 68.69 2.45L68.69 2.45L67.23 2.45L67.23 2.45Q67.13 2.45 67.07 2.51L67.07 2.51L67.07 2.51Q67.01 2.57 67.01 2.67L67.01 2.67ZM73.17 12.02L73.17 12.02L73.17 2.67L73.17 2.67Q73.17 2.57 73.22 2.51L73.22 2.51L73.22 2.51Q73.28 2.45 73.38 2.45L73.38 2.45L78.53 2.45L78.53 2.45Q78.76 2.45 78.76 2.67L78.76 2.67L78.76 4.07L78.76 4.07Q78.76 4.31 78.53 4.31L78.53 4.31L75.07 4.31L75.07 6.47L77.70 6.47L77.70 6.47Q77.93 6.47 77.93 6.71L77.93 6.71L77.93 8.09L77.93 8.09Q77.93 8.33 77.70 8.33L77.70 8.33L75.07 8.33L75.07 10.40L78.53 10.40L78.53 10.40Q78.66 10.40 78.71 10.45L78.71 10.45L78.71 10.45Q78.76 10.50 78.76 10.62L78.76 10.62L78.76 12.02L78.76 12.02Q78.76 12.25 78.53 12.25L78.53 12.25L73.38 12.25L73.38 12.25Q73.28 12.25 73.22 12.19L73.22 12.19L73.22 12.19Q73.17 12.13 73.17 12.02ZM80.14 10.23L80.14 10.23L80.14 4.46L80.14 4.46Q80.14 3.47 80.66 2.96L80.66 2.96L80.66 2.96Q81.17 2.45 82.16 2.45L82.16 2.45L83.73 2.45L83.73 2.45Q84.71 2.45 85.23 2.96L85.23 2.96L85.23 2.96Q85.75 3.48 85.75 4.46L85.75 4.46L85.75 5.50L85.75 5.50Q85.75 5.61 85.69 5.67L85.69 5.67L85.69 5.67Q85.63 5.73 85.52 5.73L85.52 5.73L84.21 5.73L84.21 5.73Q83.99 5.73 83.99 5.50L83.99 5.50L83.99 4.82L83.99 4.82Q83.99 4.26 83.43 4.26L83.43 4.26L82.53 4.26L82.53 4.26Q81.97 4.26 81.97 4.82L81.97 4.82L81.97 9.88L81.97 9.88Q81.97 10.45 82.53 10.45L82.53 10.45L83.43 10.45L83.43 10.45Q83.99 10.45 83.99 9.88L83.99 9.88L83.99 8.67L83.25 8.67L83.25 8.67Q83.03 8.67 83.03 8.44L83.03 8.44L83.03 7.04L83.03 7.04Q83.03 6.82 83.25 6.82L83.25 6.82L85.52 6.82L85.52 6.82Q85.75 6.82 85.75 7.04L85.75 7.04L85.75 10.23L85.75 10.23Q85.75 11.22 85.23 11.73L85.23 11.73L85.23 11.73Q84.71 12.25 83.73 12.25L83.73 12.25L82.16 12.25L82.16 12.25Q81.17 12.25 80.66 11.74L80.66 11.74L80.66 11.74Q80.14 11.22 80.14 10.23ZM87.14 10.23L87.14 10.23L87.14 4.46L87.14 4.46Q87.14 3.47 87.66 2.96L87.66 2.96L87.66 2.96Q88.17 2.45 89.16 2.45L89.16 2.45L90.73 2.45L90.73 2.45Q91.72 2.45 92.24 2.96L92.24 2.96L92.24 2.96Q92.75 3.47 92.75 4.46L92.75 4.46L92.75 10.23L92.75 10.23Q92.75 11.22 92.24 11.74L92.24 11.74L92.24 11.74Q91.72 12.25 90.73 12.25L90.73 12.25L89.16 12.25L89.16 12.25Q88.17 12.25 87.66 11.74L87.66 11.74L87.66 11.74Q87.14 11.22 87.14 10.23ZM88.97 4.82L88.97 9.88L88.97 9.88Q88.97 10.45 89.53 10.45L89.53 10.45L90.43 10.45L90.43 10.45Q90.99 10.45 90.99 9.88L90.99 9.88L90.99 4.82L90.99 4.82Q90.99 4.26 90.43 4.26L90.43 4.26L89.53 4.26L89.53 4.26Q88.97 4.26 88.97 4.82L88.97 4.82ZM94.14 10.23L94.14 10.23L94.14 9.32L94.14 9.32Q94.14 9.10 94.37 9.10L94.37 9.10L95.79 9.10L95.79 9.10Q96.01 9.10 96.01 9.32L96.01 9.32L96.01 9.91L96.01 9.91Q96.01 10.47 96.57 10.47L96.57 10.47L97.32 10.47L97.32 10.47Q97.88 10.47 97.88 9.91L97.88 9.91L97.88 8.50L94.53 7.40L94.53 7.40Q94.14 7.28 94.14 6.89L94.14 6.89L94.14 4.46L94.14 4.46Q94.14 3.48 94.66 2.96L94.66 2.96L94.66 2.96Q95.18 2.45 96.16 2.45L96.16 2.45L97.73 2.45L97.73 2.45Q98.72 2.45 99.24 2.96L99.24 2.96L99.24 2.96Q99.75 3.47 99.75 4.46L99.75 4.46L99.75 5.39L99.75 5.39Q99.75 5.61 99.52 5.61L99.52 5.61L98.11 5.61L98.11 5.61Q98.01 5.61 97.95 5.55L97.95 5.55L97.95 5.55Q97.88 5.49 97.88 5.39L97.88 5.39L97.88 4.80L97.88 4.80Q97.88 4.25 97.32 4.25L97.32 4.25L96.56 4.25L96.56 4.25Q96.29 4.25 96.14 4.39L96.14 4.39L96.14 4.39Q96.00 4.53 96.00 4.80L96.00 4.80L96.00 6.00L99.38 7.08L99.38 7.08Q99.75 7.21 99.75 7.60L99.75 7.60L99.75 10.23L99.75 10.23Q99.75 11.22 99.24 11.74L99.24 11.74L99.24 11.74Q98.72 12.25 97.73 12.25L97.73 12.25L96.16 12.25L96.16 12.25Q95.18 12.25 94.66 11.73L94.66 11.73L94.66 11.73Q94.14 11.22 94.14 10.23Z"></path></g><defs data-v-423bf9ae=""><linearGradient data-v-423bf9ae="" gradientTransform="rotate(25)" id="e21bf9a5-2b83-4628-8175-72fec24f8611" x1="0%" y1="0%" x2="100%" y2="0%"><stop data-v-423bf9ae="" offset="0%" style="stop-color: rgb(121, 35, 0); stop-opacity: 1;"></stop><stop data-v-423bf9ae="" offset="100%" style="stop-color: rgb(243, 112, 0); stop-opacity: 1;"></stop></linearGradient></defs><g data-v-423bf9ae="" id="dc2dd476-c6fd-4dfb-8358-8537759158f0" transform="matrix(2.8125,0,0,2.8125,-21.194407999515533,0)" stroke="none" fill="url(#e21bf9a5-2b83-4628-8175-72fec24f8611)"><path d="M18.396 26.495L7.807 15.905 18.432 5.28l.707.707-9.918 9.918 9.882 9.883z"></path><path d="M23.194 1v4.194H19V1h4.194m1-1H18v6.194h6.194V0zM23.194 26.806V31H19v-4.194h4.194m1-1H18V32h6.194v-6.194z"></path></g><!----></svg>